<?xml version="1.0" encoding="iso-8859-1"?>
<!-- Generator: Adobe Illustrator 19.0.0, SVG Export Plug-In . SVG Version: 6.00 Build 0)  -->
<svg version="1.1" id="Capa_1" xmlns="http://www.w3.org/2000/svg" xmlns:xlink="http://www.w3.org/1999/xlink" x="0px" y="0px"
	 viewBox="0 0 512.003 512.003" style="enable-background:new 0 0 512.003 512.003;" xml:space="preserve">
<g>
	<g>
		<path d="M491.865,184.088h-141.94l-19.773-91.257c-1.191-5.362-4.252-9.693-8.118-12.828c-3.889-3.118-8.779-5.194-14.261-5.218
			h-103.55c-5.488,0.023-10.372,2.099-14.261,5.212c-3.866,3.141-6.932,7.473-8.123,12.828l-19.767,91.263H20.135
			C8.997,184.123,0.034,193.086,0,204.223v28.764c0.034,11.137,8.997,20.1,20.135,20.135h17.259c0.788-0.011,1.789,0.357,2.606,1.11
			c0.823,0.747,1.283,1.709,1.341,2.503l3.676,40.367c0.512,5.511,3.164,10.274,6.892,13.68c3.722,3.4,8.71,5.615,14.25,5.626
			h23.011c5.534-0.011,10.516-2.22,14.25-5.626c3.728-3.406,6.374-8.169,6.887-13.68l3.676-40.367
			c0.063-0.788,0.523-1.754,1.341-2.503c0.823-0.754,1.818-1.122,2.612-1.11h29.178l-35.178,162.39l0.023-0.074
			c-0.328,1.444-0.471,2.877-0.471,4.223c-0.029,4.7,1.852,9.331,5.212,12.559c3.325,3.261,7.991,5.022,12.743,4.999h253.124
			c4.752,0.023,9.412-1.738,12.743-4.999c3.348-3.227,5.235-7.858,5.207-12.559c0-1.375-0.15-2.761-0.443-4.136l-35.184-162.402
			h29.184c0.788-0.011,1.789,0.357,2.606,1.11c0.823,0.747,1.283,1.709,1.341,2.503l3.676,40.367
			c0.512,5.511,3.164,10.274,6.892,13.68c3.722,3.4,8.71,5.615,14.25,5.627h23.011c5.534-0.011,10.516-2.22,14.25-5.627
			c3.728-3.406,6.374-8.169,6.887-13.68l3.676-40.367c0.063-0.788,0.523-1.754,1.341-2.503c0.823-0.754,1.818-1.122,2.612-1.11
			h17.259c11.132-0.034,20.1-8.997,20.135-20.135v-28.764C511.966,193.086,502.997,184.123,491.865,184.088z M264.629,92.044h43.146
			c0.84-0.029,2.261,0.431,3.423,1.391c1.185,0.938,1.938,2.227,2.083,3.055l18.979,87.599h-67.63V92.044z M198.714,96.485
			c0.15-0.828,0.897-2.117,2.083-3.055c1.168-0.96,2.583-1.421,3.429-1.392h43.146v92.044h-67.636L198.714,96.485z M247.372,419.953
			H129.438l-0.662-0.097l-0.011-0.006l-0.023-0.195l0.047-0.42l0.092-0.397l35.904-165.716h82.587V419.953z M383.19,419.166
			l0.063,0.495l-0.023,0.19c-0.052,0.023-0.195,0.098-0.668,0.103H264.629V253.123h82.587L383.19,419.166z M494.742,232.989
			c0,0.78-0.305,1.46-0.852,2.023c-0.563,0.547-1.242,0.852-2.025,0.852h-17.259c-5.54,0.011-10.522,2.22-14.25,5.626
			c-3.728,3.406-6.38,8.169-6.892,13.68l-3.676,40.362c-0.063,0.794-0.523,1.754-1.341,2.503c-0.817,0.754-1.818,1.122-2.606,1.11
			h-23.011c-0.794,0.011-1.794-0.357-2.612-1.11c-0.823-0.747-1.283-1.709-1.341-2.503l-3.676-40.367
			c-0.512-5.511-3.158-10.274-6.887-13.68c-3.734-3.4-8.715-5.609-14.25-5.62H117.932c-5.54,0.011-10.522,2.22-14.25,5.626
			c-3.728,3.406-6.38,8.169-6.892,13.68l-3.676,40.362c-0.063,0.794-0.523,1.754-1.341,2.503c-0.817,0.754-1.818,1.122-2.606,1.11
			h-23.01c-0.794,0.011-1.794-0.357-2.612-1.11c-0.823-0.747-1.283-1.709-1.341-2.503l-3.676-40.367
			c-0.512-5.511-3.158-10.274-6.887-13.68c-3.734-3.4-8.715-5.609-14.25-5.62H20.135c-0.788,0-1.462-0.305-2.025-0.852
			c-0.547-0.563-0.852-1.243-0.852-2.025v-28.764c0-0.783,0.305-1.462,0.852-2.025c0.563-0.547,1.237-0.852,2.025-0.852h471.731
			c0.783,0,1.462,0.305,2.025,0.852c0.547,0.563,0.852,1.243,0.852,2.025V232.989z"/>
	</g>
</g>
<g>
</g>
<g>
</g>
<g>
</g>
<g>
</g>
<g>
</g>
<g>
</g>
<g>
</g>
<g>
</g>
<g>
</g>
<g>
</g>
<g>
</g>
<g>
</g>
<g>
</g>
<g>
</g>
<g>
</g>
</svg>
